Coordinates
version=1
nRows=16
nColumns=36
inDegrees=yes

Units are S.I. units (second, meters, Newtons, ...)
If the header above contains a line with 'inDegrees', this indicates whether rotational values are in degrees (yes) or radians (no).

endheader
time	pelvis_tilt	pelvis_list	pelvis_rotation	pelvis_tx	pelvis_ty	pelvis_tz	hip_flexion_r	hip_adduction_r	hip_rotation_r	knee_angle_r	knee_angle_r_beta	ankle_angle_r	subtalar_angle_r	mtp_angle_r	hip_flexion_l	hip_adduction_l	hip_rotation_l	knee_angle_l	knee_angle_l_beta	ankle_angle_l	subtalar_angle_l	mtp_angle_l	lumbar_extension	lumbar_bending	lumbar_rotation	arm_flex_r	arm_add_r	arm_rot_r	elbow_flex_r	pro_sup_r	arm_flex_l	arm_add_l	arm_rot_l	elbow_flex_l	pro_sup_l
      2.88333330	     -8.87428322	     -1.20563475	     -4.76843282	     -0.06542511	      0.98102771	     -0.04689076	     22.95804202	     -7.99878193	    -15.09053166	     21.52695044	      0.37571616	      2.07300755	      3.29947992	     -7.49999987	     13.72249068	      3.31484076	     -5.69511600	      1.87035940	      0.03264393	      0.33520643	      1.89102205	     -7.49999987	    -14.53205256	     -3.42334667	      3.53182303	     14.80378943	     -1.36165805	     27.65477402	     32.87105672	     97.60161002	     14.86450455	    -11.07523983	     15.83489009	     23.56733227	     89.78129036
      2.90000000	     -8.39899254	     -1.03915343	     -5.17983028	     -0.06459263	      0.97687004	     -0.04739950	     22.04565278	     -7.64685592	    -15.02542842	     21.01635554	      0.36680460	      2.74364302	      2.48861434	     -7.49999987	     13.17710572	      3.46915415	     -6.01868856	      1.94085580	      0.03387432	      0.50883932	      1.59095022	     -7.49999987	    -14.72311646	     -3.55130424	      3.43825406	     15.05137427	     -1.43630548	     27.37842771	     32.90621579	     97.60777343	     14.70060627	    -11.12558848	     15.54336449	     23.29365168	     89.71527525
      2.91666670	     -8.04148514	     -0.91850529	     -5.64495838	     -0.06216847	      0.97520246	     -0.04609517	     21.30283616	     -7.23513452	    -14.88800258	     20.66325465	      0.36064183	      3.33361594	      1.73354841	     -7.49999987	     12.65792675	      3.54677655	     -6.38407008	      1.93373291	      0.03375001	      0.90694984	      1.44003251	     -7.49999987	    -14.73097477	     -3.67037476	      3.61331682	     14.85953166	     -1.43136502	     25.50322940	     33.26732127	     98.55693328	     14.43705228	    -10.99154094	     14.46327566	     23.16718889	     89.30808196
      2.93333330	     -7.80594433	     -0.73653392	     -6.01770802	     -0.06087290	      0.96835844	     -0.04461670	     20.86951952	     -6.94506062	    -14.60196751	     20.72076264	      0.36164553	      4.21100381	      0.97476171	     -7.49999987	     12.32271411	      3.69583761	     -6.47148045	      2.00020824	      0.03491022	      1.40471186	      1.16164428	     -7.49999987	    -14.44310119	     -3.80870271	      3.56848666	     14.93735022	     -1.54416447	     25.19423502	     33.36258914	     98.49513326	     14.08138185	    -11.12281486	     14.26910726	     23.09771073	     89.27189528
      2.95000000	     -7.68095406	     -0.56768220	     -6.38733259	     -0.06154870	      0.96487690	     -0.04547884	     20.68084754	     -6.71352698	    -14.36883749	     20.89519963	      0.36469003	      5.09874746	      0.31853824	     -7.49999987	     12.10742033	      3.83192658	     -6.48742405	      2.08213744	      0.03634015	      2.06871568	      0.89037452	     -7.49999987	    -14.03070184	     -3.89174040	      3.55057941	     14.97233308	     -1.73192830	     24.85944117	     33.47073662	     98.43134354	     13.78475929	    -11.15894041	     14.10403148	     23.13964558	     89.23502325
      2.96666670	     -7.76497036	     -0.30688383	     -6.67916617	     -0.05941307	      0.96548751	     -0.04456973	     20.75539653	     -6.51432158	    -13.80202267	     21.07754518	      0.36787256	      5.54595825	     -0.69081362	     -7.49999987	     12.14038668	      4.03287984	     -6.66717482	      2.15950051	      0.03769039	      2.63424149	      0.65631311	     -7.49999987	    -13.43769258	     -4.17456468	      3.81073837	     14.39651692	     -1.73278438	     22.55354627	     34.20187044	     96.57507092	     13.34831269	    -11.13051120	     13.18542531	     23.97154318	     87.30829134
      2.98333330	     -7.59801742	     -0.14187656	     -6.87993039	     -0.06032392	      0.96854587	     -0.04366861	     20.43188505	     -6.29462341	    -13.46869046	     20.90397231	      0.36484314	      5.82730296	     -1.40841145	     -7.49999987	     11.88537854	      4.17305229	     -6.68298146	      2.17786418	      0.03801090	      2.67065912	      0.17631732	     -7.49999987	    -13.41500258	     -4.34481717	      3.53814337	     14.12587445	     -1.60591477	     21.20537000	     35.00013305	     87.90182701	     12.46202119	    -11.21040219	     11.65638039	     26.17338617	     80.07231518
      3.00000000	     -7.95728666	      0.08700608	     -7.01436009	     -0.05988075	      0.96888008	     -0.04185965	     20.74025323	     -6.11983759	    -13.41167928	     20.74668594	      0.36209798	      6.11426492	     -1.40795627	     -7.49999987	     12.26403897	      4.29708781	     -6.72116075	      2.26179872	      0.03947583	      2.65271511	     -0.31113723	     -7.49999987	    -12.37831727	     -4.59574677	      3.83435863	     13.54103275	     -1.50294171	     18.20380177	     35.25728579	     99.57809073	     12.83621808	    -10.93973466	     10.50581769	     24.94294570	     90.04020035
      3.01666670	     -8.10498036	      0.22390855	     -7.14705785	     -0.06039740	      0.97042151	     -0.04096393	     20.86181761	     -5.86784226	    -13.18034556	     20.61506107	      0.35980069	      6.31120618	     -1.47086108	     -7.49999987	     12.36414490	      4.34655435	     -6.85286896	      2.18702394	      0.03817077	      2.70427229	     -0.19969275	     -7.49999987	    -11.79000993	     -4.74827940	      3.57766577	     13.58439767	     -1.53747230	     18.86683609	     34.96112350	     93.66317035	     12.65036448	    -10.93982984	     10.57433882	     25.18138596	     85.38746805
      3.03333330	     -8.24641716	      0.26311980	     -7.16865818	     -0.06050312	      0.95975070	     -0.03983634	     21.12324921	     -5.56650662	    -12.67234431	     20.97505510	      0.36608377	      6.58653411	     -2.31098384	     -7.49999987	     12.50865052	      4.30114187	     -6.61056537	      2.18072823	      0.03806089	      2.82763291	     -0.74186643	     -7.49999987	    -11.32110192	     -4.84589510	      3.37935775	     13.32482717	     -1.48836026	     18.14019174	     35.38569908	     94.32246901	     12.41614441	    -11.19187273	     10.79113630	     26.41122835	     86.29061500
      3.05000000	     -8.19706823	      0.26216173	     -7.28521653	     -0.05972724	      0.96834190	     -0.04185735	     21.03219520	     -5.43308044	    -12.48032818	     21.11500659	      0.36852639	      6.53857217	     -2.33142915	     -7.49999987	     12.38872142	      4.29107344	     -6.62760376	      2.07735507	      0.03625669	      2.85694905	     -0.73838320	     -7.49999987	    -10.97847158	     -4.76108005	      3.15297538	     13.26522182	     -1.65874962	     18.02398793	     35.35643995	     94.35684772	     12.43300170	    -10.94986914	     10.82912996	     26.51399037	     86.35618264
      3.06666670	     -8.21491138	      0.26903487	     -7.35158906	     -0.05693249	      0.96843043	     -0.03978244	     20.90482074	     -5.19262111	    -11.89828046	     21.29319197	      0.37163631	      6.38627073	     -3.20141373	     -7.49999987	     12.26760132	      4.22027369	     -6.66728667	      1.98545011	      0.03465264	      2.87559565	     -0.59042281	     -7.49999987	    -10.49965927	     -4.81482854	      3.39065338	     12.58885218	     -1.44128571	     15.05452237	     35.81755337	     98.46047729	     12.48449096	    -10.71624917	     10.21679320	     26.91090760	     91.45903512
      3.08333330	     -8.14478563	      0.25451312	     -7.28113480	     -0.05356981	      0.97096194	     -0.04017872	     20.31719947	     -5.05893315	    -11.73075631	     20.91628676	      0.36505807	      6.23383678	     -3.35752819	     -7.49999987	     12.03409555	      4.21840553	     -6.62742044	      1.95319190	      0.03408963	      2.60238269	     -0.68897417	     -7.49999987	    -10.08876540	     -4.72349381	      3.06076731	     12.24707631	     -1.50827856	     14.52663997	     35.79911946	     98.61458552	     11.97052724	    -10.48906687	      9.59817931	     27.68078423	     92.26578469
      3.10000000	     -8.08621119	      0.28821706	     -7.24445226	     -0.05298482	      0.97567607	     -0.03907464	     19.80067550	     -4.93817340	    -11.55061306	     20.33609875	      0.35493188	      6.07959497	     -3.23426165	     -7.49999987	     11.84220360	      4.22852078	     -6.91148572	      2.00569957	      0.03500606	      2.15219497	     -0.68585967	     -7.49999987	     -9.66515083	     -4.73423402	      2.86992241	     11.94220903	     -1.61200738	     14.45726039	     35.71208609	     98.59418517	     11.87065166	    -10.25559273	      9.67111732	     27.84437935	     92.28562245
      3.11666670	     -7.77901105	      0.04709583	     -7.19281808	     -0.04849748	      0.97107004	     -0.03619898	     18.96898429	     -4.57322495	    -11.40775598	     19.95157846	      0.34822074	      5.91233921	     -3.52176309	     -7.49999987	     11.18459038	      3.96039161	     -6.84689211	      1.83738996	      0.03206850	      1.96442316	     -0.53303113	     -7.49999987	     -9.53748370	     -4.46106355	      2.66645162	     11.65069385	     -1.70927432	     14.09222669	     35.73772567	     98.48084873	     11.60421356	    -10.07980220	      9.86443246	     28.51218909	     92.36003045
      3.13333330	     -7.40022711	     -0.10397102	     -7.03426723	     -0.04677526	      0.97893595	     -0.03617633	     18.02579715	     -4.38681448	    -11.16490553	     19.57110388	      0.34158020	      5.70416157	     -3.96926214	     -7.49999987	     10.45106902	      3.81900162	     -6.83760660	      1.59404476	      0.02782133	      2.06127544	     -0.06084856	     -7.49999987	     -9.55872668	     -4.27751846	      2.22830644	     11.25559203	     -1.72125124	     13.39536450	     36.11807278	     98.24072009	     11.35644477	    -10.02994531	     10.22294176	     29.53989446	     92.51592099
